<?xml version="1.0" encoding="UTF-8" standalone="no"?>
<!-- Generator: Adobe Illustrator 15.0.2, SVG Export Plug-In  -->

<svg
   xmlns:dc="http://purl.org/dc/elements/1.1/"
   xmlns:cc="http://creativecommons.org/ns#"
   xmlns:rdf="http://www.w3.org/1999/02/22-rdf-syntax-ns#"
   xmlns:svg="http://www.w3.org/2000/svg"
   xmlns="http://www.w3.org/2000/svg"
   xmlns:sodipodi="http://sodipodi.sourceforge.net/DTD/sodipodi-0.dtd"
   xmlns:inkscape="http://www.inkscape.org/namespaces/inkscape"
   version="1.1"
   x="0px"
   y="0px"
   width="196"
   height="196"
   viewBox="0 0 196 196"
   enable-background="new 0 0 211 213"
   xml:space="preserve"
   id="svg2"
   inkscape:version="0.91 r"
   sodipodi:docname="doctors.svg"><metadata
     id="metadata19"><rdf:RDF><cc:Work
         rdf:about=""><dc:format>image/svg+xml</dc:format><dc:type
           rdf:resource="http://purl.org/dc/dcmitype/StillImage" /><dc:title></dc:title></cc:Work></rdf:RDF></metadata><sodipodi:namedview
     pagecolor="#ffffff"
     bordercolor="#666666"
     borderopacity="1"
     objecttolerance="10"
     gridtolerance="10"
     guidetolerance="10"
     inkscape:pageopacity="0"
     inkscape:pageshadow="2"
     inkscape:window-width="1362"
     inkscape:window-height="728"
     id="namedview17"
     showgrid="true"
     inkscape:zoom="1.5669"
     inkscape:cx="85.191"
     inkscape:cy="84.736"
     inkscape:window-x="0"
     inkscape:window-y="18"
     inkscape:window-maximized="0"
     inkscape:current-layer="svg2"><inkscape:grid
       type="xygrid"
       id="grid4151"
       empspacing="49" /></sodipodi:namedview><defs
     id="defs4" /><g
     id="g6"
     transform="matrix(0.92381,0,0,0.92381,0.30714,-0.552)"
     style="fill:#2775c8;fill-opacity:1;stroke:none"><circle
       cx="105.75"
       cy="106.68"
       r="105"
       id="circle8"
       style="fill:#2775c8;fill-opacity:1;stroke:none" /></g><g
     id="g4155"
     transform="translate(-7.6798,8.4267)"><path
       style="fill:#ffffff"
       inkscape:connector-curvature="0"
       id="path10"
       d="m 105.75,115.36 c 11.31,0 20.5,-11.98 20.5,-26.7 0,-1.93 -0.16,-3.81 -0.47,-5.63 l -5.59,0 -14.44,20.62 -14.441,-20.62 -5.593,0 c -0.302,1.82 -0.47,3.7 -0.47,5.64 0,14.72 9.198,26.69 20.504,26.69 z" /><g
       id="g4147"><path
         d="m 135.85,83.03 -7.17,0 c 0.28,1.83 0.44,3.71 0.44,5.64 0,15.86 -9.94,28.81 -22.35,29.49 -0.35,0.38 -5.22,5.97 -2.24,10.06 1.07,1.47 3.03,1.03 6.16,0.18 3.79,-1.03 8.99,-2.44 11.7,3.4 0.92,1.99 0.93,3.98 0,5.9 -1.96,4.22 -8.06,7.1 -11.94,8.56 -0.14,2.5 -2.2,4.5 -4.74,4.5 -2.63,0 -4.77,-2.14 -4.77,-4.77 0,-2.64 2.14,-4.77 4.77,-4.77 1.7,0 3.19,0.9 4.03,2.25 3.74,-1.45 8.64,-3.93 10.06,-6.98 0.53,-1.14 0.51,-2.28 0,-3.49 -1.61,-3.48 -4.22,-2.97 -8.35,-1.84 -3.25,0.88 -6.94,1.88 -9.22,-1.26 -3.155,-4.33 -0.75,-9.24 1.03,-11.86 -11.711,-1.58 -20.864,-14.15 -20.864,-29.38 0,-1.93 0.158,-3.81 0.438,-5.63 l -7.171,0 c -11.545,0 -20.904,9.36 -20.904,20.9 l 0,30.1 c 0,11.55 9.359,20.91 20.904,20.91 l 60.197,0 c 11.54,0 20.9,-9.36 20.9,-20.91 l 0,-30.1 c 0,-11.54 -9.36,-20.9 -20.9,-20.9 z m 11.69,37.26 c 0,1.01 -0.82,1.83 -1.83,1.83 l -17.99,0 c -1.01,0 -1.83,-0.82 -1.83,-1.83 l 0,-0.1 c 0,-1.01 0.82,-1.83 1.83,-1.83 l 17.98,0 c 1.02,0 1.84,0.82 1.84,1.83 l 0,0.1 z"
         id="path12"
         inkscape:connector-curvature="0"
         style="fill:#ffffff" /><ellipse
         cx="105.75"
         cy="53.047"
         rx="27.017"
         ry="28.62"
         id="ellipse14"
         style="fill:#ffffff" /></g></g><rect
     id="_x3C_Slice_x3E__5_"
     width="211"
     height="213"
     x="0"
     y="-17"
     style="fill:none" /></svg>