<?xml version="1.0" encoding="UTF-8" standalone="no"?>
<!-- Generator: Adobe Illustrator 16.0.0, SVG Export Plug-In . SVG Version: 6.00 Build 0)  -->

<svg
   xmlns:dc="http://purl.org/dc/elements/1.1/"
   xmlns:cc="http://creativecommons.org/ns#"
   xmlns:rdf="http://www.w3.org/1999/02/22-rdf-syntax-ns#"
   xmlns:svg="http://www.w3.org/2000/svg"
   xmlns="http://www.w3.org/2000/svg"
   xmlns:sodipodi="http://sodipodi.sourceforge.net/DTD/sodipodi-0.dtd"
   xmlns:inkscape="http://www.inkscape.org/namespaces/inkscape"
   version="1.1"
   id="Layer_1"
   x="0px"
   y="0px"
   width="196"
   height="196"
   viewBox="0 0 196 196"
   enable-background="new 0 0 120 128"
   xml:space="preserve"
   inkscape:version="0.91 r"
   sodipodi:docname="fees.svg"><metadata
     id="metadata35"><rdf:RDF><cc:Work
         rdf:about=""><dc:format>image/svg+xml</dc:format><dc:type
           rdf:resource="http://purl.org/dc/dcmitype/StillImage" /><dc:title /></cc:Work></rdf:RDF></metadata><defs
     id="defs33" /><sodipodi:namedview
     pagecolor="#ffffff"
     bordercolor="#666666"
     borderopacity="1"
     objecttolerance="10"
     gridtolerance="10"
     guidetolerance="10"
     inkscape:pageopacity="0"
     inkscape:pageshadow="2"
     inkscape:window-width="1362"
     inkscape:window-height="728"
     id="namedview31"
     showgrid="true"
     inkscape:zoom="1.8437"
     inkscape:cx="95.67"
     inkscape:cy="84.895"
     inkscape:window-x="0"
     inkscape:window-y="18"
     inkscape:window-maximized="0"
     inkscape:current-layer="layer2"><inkscape:grid
       type="xygrid"
       id="grid4221"
       empspacing="49" /></sodipodi:namedview><g
     inkscape:groupmode="layer"
     id="layer2"
     inkscape:label="bg"><circle
       style="opacity:1;fill:#ffffff;fill-opacity:1;fill-rule:evenodd;stroke:none;stroke-width:4.96487;stroke-linecap:butt;stroke-linejoin:round;stroke-miterlimit:4;stroke-dasharray:none;stroke-dashoffset:0;stroke-opacity:1"
       id="path4219"
       cx="98"
       cy="98"
       r="94.518" /></g><g
     inkscape:groupmode="layer"
     id="layer1"
     inkscape:label="Layer 1"
     style="display:inline"><g
       id="g3"
       transform="matrix(1.0558,0,0,1.0558,34.845,30.394)"
       style="fill:#2775c8;fill-opacity:1;stroke:none"><polygon
         points="7.126,45.678 11.806,45.678 21.427,13.987 109.32,40.172 104.92,54.688 104.92,70.101 114.74,37.737 18.262,9 "
         id="polygon5"
         style="fill:#2775c8;fill-opacity:1;stroke:none" /><path
         d="m 57.807,39.783 c 1.362,-0.624 2.696,-0.444 3.573,-0.183 0.688,0.205 1.376,0.542 1.989,0.979 0.534,0.379 1.271,1.296 1.723,2.001 0.06,0.1 0.115,0.197 0.169,0.302 0,0 0.04,0.09 0.05,0.1 0.03,0.06 0.05,0.119 0.06,0.182 0.152,0.546 0.529,0.933 1.063,1.09 0.905,0.271 1.994,-0.183 2.604,-0.771 0.539,-0.519 0.752,-1.164 0.585,-1.765 -0.5,-1.817 -2.324,-3.743 -3.867,-4.708 -0.504,-0.311 -1.043,-0.579 -1.604,-0.818 l 0.668,-2.199 c 0.104,-0.335 -0.09,-0.688 -0.427,-0.788 l -2.104,-0.628 c -0.337,-0.1 -0.694,0.09 -0.794,0.425 l -0.692,2.271 c -1.985,-0.247 -3.892,0.03 -5.429,0.813 -2.582,1.314 -4.019,4.011 -3.573,6.712 0.181,1.09 0.643,2.085 1.295,2.886 l 6.469,0 c -0.515,-0.437 -1,-0.837 -1.199,-1.003 0,0 -0.141,-0.123 -0.148,-0.127 -0.797,-0.695 -1.323,-1.155 -1.552,-2.039 -0.275,-1.049 0.257,-2.323 1.141,-2.728 z"
         id="path7"
         inkscape:connector-curvature="0"
         style="fill:#2775c8;fill-opacity:1;stroke:none" /><path
         d="m 29.053,20.323 c -0.03,0.303 -0.08,0.606 -0.174,0.91 -0.798,2.626 -3.593,4.114 -6.243,3.324 -0.101,-0.03 -0.184,-0.08 -0.28,-0.121 l -6.448,21.242 24.192,0 c 0.146,-1.029 0.363,-2.063 0.675,-3.09 2.248,-7.402 8.332,-12.617 15.451,-14.172 L 29.053,20.323 Z m 3.15,19.668 c -0.537,1.765 -2.42,2.77 -4.205,2.238 -1.787,-0.532 -2.799,-2.396 -2.261,-4.165 0.537,-1.768 2.42,-2.77 4.205,-2.24 1.785,0.533 2.797,2.397 2.261,4.167 z"
         id="path9"
         inkscape:connector-curvature="0"
         style="fill:#2775c8;fill-opacity:1;stroke:none" /><path
         d="M 99.437,41.286 75.579,34.18 c 3.061,3.13 5.053,7.166 5.669,11.498 l 18.107,0 c -0.509,-1.069 -0.652,-2.314 -0.281,-3.536 0.09,-0.302 0.219,-0.585 0.363,-0.856 z"
         id="path11"
         inkscape:connector-curvature="0"
         style="fill:#2775c8;fill-opacity:1;stroke:none" /><path
         d="m 49.018,90.729 2.195,0 c 0.353,0 0.64,-0.284 0.64,-0.634 l 0,-2.135 c 2.28,-0.157 4.227,-0.826 5.434,-1.888 2.109,-1.854 2.911,-4.686 2.044,-7.222 -0.947,-2.782 -4.727,-4.329 -7.485,-5.46 l -0.447,-0.183 c -0.899,-0.416 -2.226,-0.978 -2.62,-1.146 0,0 -0.172,-0.08 -0.181,-0.08 -0.964,-0.441 -1.601,-0.729 -2.078,-1.508 -0.57,-0.924 -0.429,-2.298 0.298,-2.938 1.125,-0.987 2.451,-1.196 3.37,-1.196 0.717,0 1.474,0.13 2.188,0.37 0.623,0.213 1.593,0.877 2.233,1.428 0.09,0.08 0.167,0.156 0.249,0.238 0,0 0.07,0.07 0.07,0.08 0.04,0.05 0.08,0.103 0.113,0.157 0.303,0.479 0.777,0.744 1.335,0.744 0.942,0 1.854,-0.749 2.268,-1.485 0.365,-0.649 0.382,-1.329 0.05,-1.857 -1.006,-1.596 -3.313,-2.92 -5.071,-3.404 -0.573,-0.155 -1.167,-0.257 -1.772,-0.325 l 0,-2.3 c 0,-0.347 -0.288,-0.633 -0.64,-0.633 l -2.195,0 c -0.353,0 -0.639,0.286 -0.639,0.633 l 0,2.374 c -1.974,0.331 -3.721,1.139 -4.965,2.325 -2.091,1.998 -2.683,4.989 -1.469,7.447 0.587,1.19 1.509,2.156 2.597,2.726 0.851,0.446 4.942,2.374 6.91,3.305 l 0.975,0.458 c 0.856,0.409 1.548,0.979 1.851,1.524 0.527,0.951 0.293,2.261 -0.521,2.916 -0.625,0.506 -1.578,0.771 -2.759,0.771 -1.052,0 -2.292,-0.218 -3.401,-0.593 -0.657,-0.222 -1.604,-0.777 -2.197,-1.289 -0.09,-0.07 -0.168,-0.154 -0.253,-0.24 l -0.05,-0.05 c 0,-0.01 -0.02,-0.02 -0.03,-0.03 -0.04,-0.05 -0.08,-0.1 -0.112,-0.154 -0.302,-0.48 -0.775,-0.742 -1.332,-0.742 -0.947,0 -1.858,0.746 -2.27,1.482 -0.366,0.652 -0.382,1.331 -0.05,1.858 1.332,2.108 4.214,3.303 7.07,3.733 l 0,2.288 c 0,0.35 0.287,0.634 0.639,0.634 z"
         id="path13"
         inkscape:connector-curvature="0"
         style="fill:#2775c8;fill-opacity:1;stroke:none" /><path
         d="m 42,57.108 -28.374,0 c 0.06,0.298 0.1,0.604 0.1,0.918 0,2.741 -2.244,4.964 -5.012,4.964 -0.102,0 -0.201,-0.01 -0.302,-0.02 l 0,24.144 c 0.101,0 0.2,-0.02 0.302,-0.02 2.769,0 5.012,2.223 5.012,4.964 0,0.05 0,0.102 -0.01,0.152 l 26.866,0 C 35.001,88.517 31.325,82.229 31.325,75.086 31.325,67.354 35.636,60.627 42,57.108 Z M 18.984,78.386 c -1.863,0 -3.374,-1.497 -3.374,-3.343 0,-1.848 1.511,-3.343 3.374,-3.343 1.865,0 3.376,1.495 3.376,3.343 0,1.846 -1.511,3.343 -3.376,3.343 z"
         id="path15"
         inkscape:connector-curvature="0"
         style="fill:#2775c8;fill-opacity:1;stroke:none" /><path
         d="m 4.482,96.1 0,-42.883 91.782,0 0,18.853 c 1.251,-0.08 2.517,-0.142 3.796,-0.142 0.23,0 0.46,0.02 0.69,0.02 l 0,-22.606 -100.75,0 0,51.398 76.884,0 0,-0.37 c 0,-0.413 0.168,-0.798 0.434,-1.102 C 76.514,98.316 76.031,97.26 75.959,96.1 l -71.477,0 z"
         id="path17"
         inkscape:connector-curvature="0"
         style="fill:#2775c8;fill-opacity:1;stroke:none" /><path
         d="m 78.39,75.043 c 0,-1.848 1.511,-3.343 3.374,-3.343 1.564,0 2.868,1.06 3.253,2.491 0.966,-0.338 2.006,-0.646 3.127,-0.918 1.326,-0.324 2.745,-0.575 4.195,-0.784 l 0,-9.52 c -0.102,0 -0.201,0.02 -0.302,0.02 -2.771,0 -5.013,-2.223 -5.013,-4.964 0,-0.314 0.04,-0.62 0.1,-0.918 l -24.908,0 c 6.365,3.519 10.675,10.246 10.675,17.979 0,7.144 -3.677,13.431 -9.252,17.122 l 12.294,0 0,-1.609 c 0,-0.07 -0.01,-0.141 -0.01,-0.208 0,-0.279 0.03,-0.562 0.09,-0.893 0.104,-0.562 0.483,-1.015 0.991,-1.242 -0.04,-0.219 -0.08,-0.442 -0.09,-0.667 -0.02,-0.09 -0.03,-0.193 -0.03,-0.29 l 0,-5.249 c 0,-0.06 0,-0.111 0,-0.158 0,-0.432 0.06,-0.865 0.173,-1.295 0.306,-1.196 1.06,-2.313 2.22,-3.322 -0.542,-0.594 -0.879,-1.372 -0.879,-2.233 z"
         id="path19"
         inkscape:connector-curvature="0"
         style="fill:#2775c8;fill-opacity:1;stroke:none" /><path
         d="m 99.138,104.68 c -7.48,0 -15.292,-1.62 -19.105,-4.684 l 0,3.654 0.02,0 c 0,4.12 8.951,7.46 19.977,7.46 10.77,0 19.55,-3.18 19.97,-7.17 0,-0.1 0,-0.19 0,-0.29 l 0,0 0,-5.064 c 0,-0.166 0,-0.332 0,-0.497 -2.52,4.351 -11.85,6.611 -20.847,6.611 z m -14.429,2.69 c -1.079,-0.48 -2.354,-1.29 -2.739,-1.78 l 0,-3.26 c 0.407,0.37 1.298,0.88 2.744,1.39 l 0,3.65 z m 5.482,1.69 c -0.968,-0.2 -1.884,-0.44 -2.741,-0.69 l 0,-3.93 c 0.854,0.27 1.771,0.52 2.741,0.73 l 0,3.89 z m 5.48,0.78 c -0.939,-0.1 -1.855,-0.17 -2.741,-0.3 l 0,-3.87 c 0.886,0.13 1.798,0.24 2.741,0.32 l 0,3.85 z m 5.479,0.17 c -0.37,0 -0.75,0 -1.13,0 -0.54,0 -1.075,0 -1.609,0 l 0,-3.85 c 0.531,0 1.068,0 1.609,0 0.38,0 0.76,0 1.13,0 l 0,3.85 z m 16.44,-4.06 c -0.47,0.44 -1.28,0.98 -2.06,1.33 l 0,-4 c 0.65,-0.22 1.48,-0.69 2.06,-1.14 l 0,3.81 z"
         id="path21"
         inkscape:connector-curvature="0"
         style="fill:#2775c8;fill-opacity:1;stroke:none" /><path
         d="m 79.159,95.723 c 0,4.121 8.95,7.457 19.979,7.457 10.772,0 19.552,-3.181 19.962,-7.165 0,-0.1 0,-0.192 0,-0.292 l 0,-0.01 0,-3.611 c -3.8,3.071 -11.56,4.66 -19.1,4.66 -8.924,0 -18.318,-2.302 -20.836,-6.618 -0.03,0.18 -0.06,0.365 -0.06,0.547 0,0.05 0,0.09 0,0.134 l 0,4.908 0.02,0 z m 35.481,0.26 c 0.54,-0.222 1.61,-0.588 2.06,-0.917 l 0,2.958 c -0.47,0.443 -1.28,0.984 -2.06,1.338 l 0,-3.379 z m -17.118,2.243 c 0.531,0.02 1.068,0.03 1.608,0.03 0.382,0 0.757,0 1.13,-0.02 l 0,3.854 c -0.37,0 -0.745,0 -1.123,0 -0.545,0 -1.081,0 -1.615,0 l 0,-3.858 z m -5.48,-0.478 c 0.886,0.132 1.799,0.236 2.741,0.319 l 0,3.853 c -0.942,-0.1 -1.855,-0.18 -2.741,-0.3 l 0,-3.872 z M 86.561,96.52 c 0.854,0.271 1.773,0.517 2.741,0.729 l 0,3.891 c -0.967,-0.21 -1.883,-0.44 -2.741,-0.69 l 0,-3.93 z m -5.48,-2.808 c 0.702,0.632 1.63,1.216 2.74,1.742 l 0,3.992 c -1.081,-0.478 -2.357,-1.287 -2.74,-1.773 l 0,-3.961 z"
         id="path23"
         inkscape:connector-curvature="0"
         style="fill:#2775c8;fill-opacity:1;stroke:none" /><path
         d="m 79.192,105.95 c -0.03,0.19 -0.06,0.37 -0.06,0.55 0,0 0,0.1 0,0.13 l 0,4.92 0.02,0 c 0,4.12 8.95,7.46 19.979,7.46 10.769,0 19.549,-3.19 19.959,-7.17 0,-0.1 0,-0.19 0,-0.29 l 0,0 0,-3.61 c -3.8,3.08 -11.56,4.66 -19.097,4.66 -8.926,0 -18.32,-2.3 -20.838,-6.62 z m 4.629,9.31 c -1.081,-0.48 -2.357,-1.28 -2.74,-1.78 l 0,-3.95 c 0.702,0.63 1.63,1.21 2.74,1.74 l 0,3.99 z m 5.481,1.69 c -0.967,-0.2 -1.883,-0.43 -2.741,-0.69 l 0,-3.93 c 0.854,0.28 1.773,0.52 2.741,0.73 l 0,3.89 z m 5.481,0.79 c -0.942,-0.1 -1.855,-0.18 -2.741,-0.31 l 0,-3.87 c 0.886,0.14 1.799,0.24 2.741,0.32 l 0,3.86 z m 19.857,-5.94 c 0.54,-0.22 1.61,-0.59 2.06,-0.92 l 0,2.96 c -0.47,0.44 -1.28,0.98 -2.06,1.34 l 0,-3.38 z m -14.38,6.11 c -0.369,0 -0.744,0 -1.122,0 -0.545,0 -1.081,0 -1.615,0 l 0,-3.85 c 0.531,0 1.068,0 1.608,0 0.382,0 0.757,0 1.129,0 l 0,3.85 z"
         id="path25"
         inkscape:connector-curvature="0"
         style="fill:#2775c8;fill-opacity:1;stroke:none" /><path
         d="m 100.03,75.077 c -11.041,0 -19.998,3.425 -19.998,7.646 l 0,5.084 0.02,0 c 0,4.119 8.951,7.459 19.978,7.459 10.77,0 19.55,-3.183 19.97,-7.169 0,-0.1 0,-0.193 0,-0.29 l 0,-0.01 0,-5.066 c 0,-4.221 -8.96,-7.646 -19.99,-7.646 z m 0,1.386 c 9.53,0 17.26,2.732 17.26,6.095 0,3.371 -7.73,6.102 -17.26,6.102 -9.532,0 -17.267,-2.73 -17.267,-6.102 10e-4,-3.363 7.735,-6.095 17.267,-6.095 z M 84.709,91.523 C 83.63,91.046 82.355,90.24 81.97,89.75 l 0,-3.958 c 0.701,0.629 1.63,1.213 2.739,1.742 l 0,3.989 z m 5.482,1.698 C 89.223,93.014 88.307,92.784 87.45,92.525 l 0,-3.927 c 0.854,0.272 1.771,0.519 2.741,0.729 l 0,3.894 z m 5.48,0.782 c -0.939,-0.08 -1.855,-0.181 -2.741,-0.307 l 0,-3.869 c 0.886,0.133 1.798,0.238 2.741,0.318 l 0,3.858 z m 5.479,0.167 c -0.37,0 -0.75,0.01 -1.13,0.01 -0.54,0 -1.075,-0.01 -1.609,-0.03 l 0,-3.848 c 0.531,0.02 1.068,0.03 1.609,0.03 0.38,0 0.76,0 1.13,-0.01 l 0,3.851 z m 16.44,-4.066 c -0.47,0.441 -1.28,0.984 -2.06,1.338 l 0,-4.008 c 0.79,-0.389 1.48,-0.805 2.06,-1.25 l 0,3.92 z"
         id="path27"
         inkscape:connector-curvature="0"
         style="fill:#2775c8;fill-opacity:1;stroke:none" /><path
         d="m 98.754,87.07 0,0.697 c 0,0.121 0.229,0.219 0.507,0.219 l 1.749,0 c 0.28,0 0.51,-0.1 0.51,-0.219 l 0,-0.711 c 1.5,-0.09 2.86,-0.308 3.78,-0.659 1.62,-0.619 2.3,-1.574 1.6,-2.451 -0.72,-0.926 -3.23,-1.389 -5.38,-1.776 l 0,-3.035 c 0.25,0.02 0.49,0.05 0.72,0.09 0.67,0.1 1.57,0.378 2.09,0.576 0.1,0.03 0.17,0.06 0.25,0.101 0.2,0.09 0,0.01 0.1,0.05 0,0.02 0.1,0.05 0.14,0.08 0.74,0.517 2.88,-0.271 2.22,-0.728 -0.77,-0.532 -2.62,-1.001 -4.04,-1.17 -0.48,-0.06 -0.98,-0.1 -1.48,-0.121 l 0,-0.666 c 0,-0.122 -0.23,-0.222 -0.51,-0.222 l -1.749,0 c -0.278,0 -0.507,0.1 -0.507,0.222 l 0,0.694 c -1.524,0.109 -2.967,0.372 -4.019,0.81 -1.623,0.671 -2.096,1.688 -1.154,2.517 0.425,0.372 1.118,0.718 2,0.916 0.397,0.09 1.746,0.363 3.173,0.649 l 0,3.028 c -0.345,-0.04 -0.674,-0.08 -0.973,-0.119 -0.667,-0.101 -1.545,-0.333 -2.064,-0.528 -0.08,-0.03 -0.167,-0.06 -0.246,-0.103 -0.2,-0.08 -0.03,-0.01 -0.101,-0.05 -0.05,-0.03 -0.09,-0.06 -0.136,-0.08 -0.748,-0.517 -2.883,0.271 -2.227,0.726 1.065,0.735 3.353,1.153 5.747,1.261 z m 2.766,-3.588 c 0.67,0.131 1.15,0.231 1.27,0.256 0.71,0.147 1.03,0.348 1.39,0.634 0.6,0.473 0.3,1.075 -0.58,1.382 -0.56,0.197 -1.29,0.291 -2.08,0.319 l 0,-2.591 z M 98.221,81.54 c -0.9,-0.182 -1.578,-0.312 -2.088,-0.67 -0.623,-0.439 -0.467,-1.075 0.357,-1.391 0.619,-0.235 1.415,-0.364 2.264,-0.415 l 0,2.576 c -0.316,-0.06 -0.527,-0.1 -0.533,-0.1 z"
         id="path29"
         inkscape:connector-curvature="0"
         style="fill:#2775c8;fill-opacity:1;stroke:none" /></g></g></svg>