<?xml version="1.0" encoding="UTF-8" standalone="no"?>
<!-- Created with Inkscape (http://www.inkscape.org/) -->

<svg
   xmlns:dc="http://purl.org/dc/elements/1.1/"
   xmlns:cc="http://creativecommons.org/ns#"
   xmlns:rdf="http://www.w3.org/1999/02/22-rdf-syntax-ns#"
   xmlns:svg="http://www.w3.org/2000/svg"
   xmlns="http://www.w3.org/2000/svg"
   xmlns:sodipodi="http://sodipodi.sourceforge.net/DTD/sodipodi-0.dtd"
   xmlns:inkscape="http://www.inkscape.org/namespaces/inkscape"
   width="196"
   height="196"
   viewBox="0 0 196 196.01"
   id="svg2"
   version="1.1"
   inkscape:version="0.91 r"
   sodipodi:docname="isurances.svg">
  <defs
     id="defs4">
    <inkscape:path-effect
       effect="spiro"
       id="path-effect25339"
       is_visible="true" />
    <inkscape:path-effect
       effect="spiro"
       id="path-effect25335"
       is_visible="true" />
    <inkscape:path-effect
       effect="spiro"
       id="path-effect25313"
       is_visible="true" />
    <inkscape:path-effect
       effect="spiro"
       id="path-effect25309"
       is_visible="true" />
  </defs>
  <sodipodi:namedview
     id="base"
     pagecolor="#ffffff"
     bordercolor="#666666"
     borderopacity="1.0"
     inkscape:pageopacity="0.0"
     inkscape:pageshadow="2"
     inkscape:zoom="1.4"
     inkscape:cx="11.462"
     inkscape:cy="119.31"
     inkscape:document-units="px"
     inkscape:current-layer="layer3"
     showgrid="true"
     units="px"
     inkscape:window-width="1362"
     inkscape:window-height="728"
     inkscape:window-x="0"
     inkscape:window-y="18"
     inkscape:window-maximized="0"
     showguides="false">
    <inkscape:grid
       type="xygrid"
       id="grid4138"
       empspacing="49"
       enabled="true" />
  </sodipodi:namedview>
  <metadata
     id="metadata7">
    <rdf:RDF>
      <cc:Work
         rdf:about="">
        <dc:format>image/svg+xml</dc:format>
        <dc:type
           rdf:resource="http://purl.org/dc/dcmitype/StillImage" />
        <dc:title></dc:title>
      </cc:Work>
    </rdf:RDF>
  </metadata>
  <g
     inkscape:label="Layer 1"
     inkscape:groupmode="layer"
     id="layer1"
     transform="translate(0,-856.39)"
     sodipodi:insensitive="true">
    <circle
       style="opacity:1;fill:#2775c8;fill-opacity:1;fill-rule:evenodd;stroke:none;stroke-width:5;stroke-linecap:butt;stroke-linejoin:round;stroke-miterlimit:4;stroke-dasharray:none;stroke-dashoffset:0;stroke-opacity:1"
       id="path4159"
       cx="98"
       cy="954.4"
       r="97.005" />
  </g>
  <g
     inkscape:groupmode="layer"
     id="layer3"
     inkscape:label="Layer 3">
    <g
       id="g25341"
       transform="matrix(1.0991,0,0,1.0991,-10.666,-1.4385)"
       style="fill:#ffffff;fill-opacity:1;stroke:none">
      <path
         sodipodi:nodetypes="cccscscccscscssscscscc"
         inkscape:connector-curvature="0"
         inkscape:original-d="m 54.99,67.591 c 0,0 0.191,-14.649 13.071,-24.373 12.88,-9.723 28.666,-10.355 28.666,-10.355 0,0 0.316,-0.884 0.774,-1.783 0.457,-0.9 1.057,-1.815 1.625,-1.878 0.572,-0.06 1.114,0.82 1.504,1.72 0.4,0.899 0.65,1.815 0.65,1.815 0,0 14.14,0 27.78,9.724 10.23,7.704 13.88,25.762 13.88,25.762 0,0 -4.79,-4.421 -10.22,-4.421 -5.43,0 -10.99,4.568 -10.99,4.568 0,0 -7.32,-4.947 -11.49,-4.947 -4.16,0 -9.21,3.663 -9.21,3.663 0,0 0,1.412 -0.15,2.824 -0.19,1.413 -1.013,2.825 -1.775,2.825 -0.758,0 -1.492,-1.444 -1.903,-2.888 -0.411,-1.443 -0.1,-2.887 -0.1,-2.887 0,0 -2.274,-4.042 -8.587,-4.042 -6.315,0 -11.24,4.883 -11.24,4.883 0,0 -3.637,-4.576 -10.531,-4.576 -6.895,0 -11.758,4.366 -11.758,4.366 z"
         inkscape:path-effect="#path-effect25313"
         id="path25311"
         d="M 54.99,67.591 C 56.348,58.283 61.059,49.5 68.061,43.218 75.813,36.264 86.32,32.468 96.727,32.863 c 0.302,-0.574 0.561,-1.17 0.774,-1.783 0.146,-0.42 0.274,-0.855 0.525,-1.223 0.125,-0.184 0.281,-0.35 0.469,-0.469 0.188,-0.119 0.408,-0.191 0.631,-0.186 0.204,0 0.403,0.07 0.575,0.183 0.172,0.11 0.319,0.259 0.439,0.425 0.23,0.332 0.36,0.726 0.49,1.112 0.21,0.609 0.42,1.214 0.65,1.815 10.03,-0.345 20.15,3.197 27.78,9.724 7.58,6.488 12.63,15.861 13.88,25.762 -2.66,-2.718 -6.41,-4.34 -10.22,-4.421 -4.08,-0.09 -8.17,1.613 -10.99,4.568 -2.85,-3.228 -7.18,-5.093 -11.49,-4.947 -3.37,0.114 -6.68,1.433 -9.21,3.663 -0,0.942 -0.1,1.884 -0.15,2.824 -0,0.61 -0.1,1.236 -0.37,1.786 -0.13,0.275 -0.32,0.527 -0.562,0.716 -0.241,0.189 -0.537,0.312 -0.843,0.323 -0.32,0.01 -0.64,-0.1 -0.9,-0.287 -0.261,-0.187 -0.464,-0.446 -0.61,-0.732 -0.291,-0.571 -0.351,-1.229 -0.393,-1.869 -0.06,-0.961 -0.1,-1.924 -0.1,-2.887 -2.237,-2.338 -5.36,-3.808 -8.587,-4.042 -4.237,-0.308 -8.574,1.576 -11.24,4.883 -2.796,-2.738 -6.621,-4.4 -10.531,-4.576 -4.29,-0.193 -8.633,1.42 -11.758,4.366 l 0,0 z"
         style="fill:#ffffff;fill-opacity:1;fill-rule:evenodd;stroke:none;stroke-width:1.0001px;stroke-linecap:butt;stroke-linejoin:miter;stroke-opacity:1" />
      <path
         inkscape:connector-curvature="0"
         id="path25315"
         d="M 99.382,84.939 A 14.019,14.019 0 0 1 85.363,98.958 14.019,14.019 0 0 1 71.344,84.939 14.019,14.019 0 0 1 85.363,70.92 14.019,14.019 0 0 1 99.382,84.939 Z"
         style="opacity:1;fill:#ffffff;fill-opacity:1;fill-rule:evenodd;stroke:none;stroke-width:1.20006;stroke-linecap:butt;stroke-linejoin:round;stroke-miterlimit:4;stroke-dasharray:none;stroke-dashoffset:0;stroke-opacity:1" />
      <path
         id="path25315-9"
         d="m 129.22,94.754 a 11.45,11.45 0 0 1 -11.45,11.456 11.45,11.45 0 0 1 -11.45,-11.456 11.45,11.45 0 0 1 11.45,-11.45 11.45,11.45 0 0 1 11.45,11.45 z"
         style="opacity:1;fill:#ffffff;fill-opacity:1;fill-rule:evenodd;stroke:none;stroke-width:0.98018;stroke-linecap:butt;stroke-linejoin:round;stroke-miterlimit:4;stroke-dasharray:none;stroke-dashoffset:0;stroke-opacity:1"
         inkscape:connector-curvature="0" />
      <path
         sodipodi:nodetypes="ccccccccsccccc"
         inkscape:connector-curvature="0"
         inkscape:original-d="m 78.542,139.06 12.502,0 0,12.51 -27.53,0 0,-41.32 c 0,0 0.2,-3.67 2.014,-5.48 1.812,-1.82 5.701,-1.85 5.701,-1.85 l 28.171,0 c 0,0 3.08,0.98 4.78,2.68 1.71,1.71 1.26,4.17 1.26,4.17 l -14.396,0 0,12.88 -12.502,0 z"
         inkscape:path-effect="#path-effect25335"
         id="path25333"
         d="m 78.542,139.06 12.502,0 0,12.51 -27.53,0 0,-41.32 c 0,-1.01 0.04,-2.03 0.369,-2.98 0.325,-0.96 0.909,-1.81 1.645,-2.5 0.751,-0.7 1.662,-1.23 2.648,-1.52 0.985,-0.3 2.025,-0.33 3.053,-0.33 l 28.171,0 c 1.88,0.15 3.67,1.16 4.78,2.68 0.87,1.2 1.32,2.69 1.26,4.17 l -14.396,0 0,12.88 -12.502,0 0,16.41 z"
         style="fill:#ffffff;fill-opacity:1;fill-rule:evenodd;stroke:none;stroke-width:1.0001px;stroke-linecap:butt;stroke-linejoin:miter;stroke-opacity:1" />
      <path
         sodipodi:nodetypes="ccccccccccc"
         inkscape:connector-curvature="0"
         inkscape:original-d="m 107.02,109.67 23.33,0 c 0,0 2.26,0.18 4.52,2.45 2.22,2.22 0.94,3.79 0.94,3.79 l 0.13,35.38 -28.97,0 0,-12.16 12.24,0 0,-16.51 -12.24,0 z"
         inkscape:path-effect="#path-effect25339"
         id="path25337"
         d="m 107.02,109.67 23.33,0 c 1.78,0 3.52,0.98 4.52,2.45 0.75,1.1 1.09,2.47 0.94,3.79 l 0.13,35.38 -28.97,0 0,-12.16 12.24,0 0,-16.51 -12.24,0 0,-12.95 z"
         style="fill:#ffffff;fill-opacity:1;fill-rule:evenodd;stroke:none;stroke-width:1.0001px;stroke-linecap:butt;stroke-linejoin:miter;stroke-opacity:1" />
    </g>
  </g>
</svg>
