<?xml version="1.0" encoding="UTF-8" standalone="no"?>
<!-- Generator: Adobe Illustrator 16.0.4, SVG Export Plug-In . SVG Version: 6.00 Build 0)  -->

<svg
   xmlns:dc="http://purl.org/dc/elements/1.1/"
   xmlns:cc="http://creativecommons.org/ns#"
   xmlns:rdf="http://www.w3.org/1999/02/22-rdf-syntax-ns#"
   xmlns:svg="http://www.w3.org/2000/svg"
   xmlns="http://www.w3.org/2000/svg"
   xmlns:sodipodi="http://sodipodi.sourceforge.net/DTD/sodipodi-0.dtd"
   xmlns:inkscape="http://www.inkscape.org/namespaces/inkscape"
   version="1.1"
   id="Layer_1"
   x="0px"
   y="0px"
   width="196"
   height="196"
   viewBox="0 0 196 196"
   xml:space="preserve"
   inkscape:version="0.91 r"
   sodipodi:docname="schedule.svg"><metadata
     id="metadata17"><rdf:RDF><cc:Work
         rdf:about=""><dc:format>image/svg+xml</dc:format><dc:type
           rdf:resource="http://purl.org/dc/dcmitype/StillImage" /><dc:title></dc:title></cc:Work></rdf:RDF></metadata><defs
     id="defs15" /><sodipodi:namedview
     pagecolor="#2f6ebb"
     bordercolor="#666666"
     borderopacity="1"
     objecttolerance="10"
     gridtolerance="10"
     guidetolerance="10"
     inkscape:pageopacity="0"
     inkscape:pageshadow="2"
     inkscape:window-width="1362"
     inkscape:window-height="728"
     id="namedview13"
     showgrid="true"
     inkscape:zoom="1.6688"
     inkscape:cx="109.74"
     inkscape:cy="78.422"
     inkscape:window-x="0"
     inkscape:window-y="18"
     inkscape:window-maximized="0"
     inkscape:current-layer="layer2"><inkscape:grid
       type="xygrid"
       id="grid4145"
       empspacing="49" /></sodipodi:namedview><style
     type="text/css"
     id="style3"><![CDATA[
	.st0{fill:#BC2233;}
	.st1{fill:#FFFFFF;}
	.st2{fill:#3C3C3C;}
]]></style><g
     inkscape:groupmode="layer"
     id="layer1"
     inkscape:label="bg"><circle
       style="opacity:1;fill:#ffffff;fill-opacity:1;fill-rule:evenodd;stroke:none;stroke-width:5;stroke-linecap:butt;stroke-linejoin:round;stroke-miterlimit:4;stroke-dasharray:none;stroke-dashoffset:0;stroke-opacity:1"
       id="path4190"
       cx="98"
       cy="98"
       r="97" /></g><g
     inkscape:groupmode="layer"
     id="layer2"
     inkscape:label="bg 1"
     style="display:inline"><path
       class="st0"
       d="m 46.408,51.966 0,-16.671 c 0,-2.294 1.912,-4.206 4.282,-4.206 2.371,0 4.283,1.836 4.283,4.206 l 0,16.748 c 0,2.294 -1.912,4.206 -4.283,4.206 -2.37,-0.08 -4.282,-1.912 -4.282,-4.283 l 0,0 z m 73.112,4.206 c 2.37,0 4.28,-1.835 4.28,-4.206 l 0,-16.671 c 0,-2.294 -1.91,-4.206 -4.28,-4.206 -2.37,0 -4.29,1.836 -4.29,4.206 l 0,16.748 c 0,2.294 1.92,4.129 4.29,4.129 l 0,0 z m -55.906,25.083 -17.206,0 0,16.748 17.206,0 0,-16.748 z m -17.206,41.835 17.206,0 0,-16.75 -17.206,0 0,16.75 z m 25.771,-25.087 17.207,0 0,-16.748 -17.207,0 0,16.748 z m 0,25.087 17.207,0 0,-16.75 -17.207,0 0,16.75 z m -34.336,7.57 0,-57.74 94.597,0 0,16.748 8.64,0 0,-32.654 c 0,-5.048 -4.2,-9.177 -9.33,-9.177 l -3.59,0 0,4.206 c 0,4.588 -3.83,8.335 -8.57,8.335 -4.74,0 -8.56,-3.747 -8.56,-8.335 l 0,-4.206 -51.698,0 0,4.206 c 0,4.588 -3.824,8.335 -8.642,8.335 -4.818,0 -8.641,-3.747 -8.641,-8.335 l 0,-4.206 -3.595,0 c -5.123,0 -9.329,4.129 -9.329,9.177 l 0,73.646 c 0,5.04 4.206,9.17 9.329,9.17 l 50.932,0 0,-8.33 -50.855,0 c -0.382,-0.1 -0.688,-0.46 -0.688,-0.84 l 0,0 z m 77.387,-32.657 0,-16.748 -17.203,0 0,16.748 17.203,0 z"
       id="path5"
       inkscape:connector-curvature="0"
       style="fill:#2775c8;fill-opacity:1" /><path
       class="st2"
       d="m 166.85,131.42 c 0,18.51 -15.37,33.5 -34.41,33.5 -18.97,0 -34.413,-14.99 -34.413,-33.5 0,-18.5 15.373,-33.417 34.413,-33.417 19.04,0 34.41,14.987 34.41,33.417 l 0,0 z"
       id="path7"
       inkscape:connector-curvature="0"
       style="fill:#2775c8;fill-opacity:1" /><path
       class="st1"
       d="m 158.21,131.42 c 0,-13.84 -11.55,-25.08 -25.85,-25.08 -14.22,0 -25.84,11.24 -25.84,25.08 0,13.84 11.54,25.08 25.84,25.08 14.3,0.1 25.85,-11.24 25.85,-25.08 l 0,0 z"
       id="path9"
       inkscape:connector-curvature="0"
       style="fill:#ffffff" /><path
       class="st2"
       d="m 145.36,131.42 -12.92,0 0,-12.54 c 0,-2.29 -1.91,-4.21 -4.28,-4.21 -2.37,0 -4.29,1.84 -4.29,4.21 l 0,16.75 c 0,2.29 1.92,4.2 4.29,4.2 l 17.2,0 c 2.37,0 4.29,-1.83 4.29,-4.2 0,-2.3 -1.92,-4.21 -4.29,-4.21 l 0,0 z"
       id="path11"
       inkscape:connector-curvature="0"
       style="fill:#2775c8;fill-opacity:1" /></g></svg>