<?xml version="1.0" encoding="UTF-8" standalone="no"?>
<svg
   xmlns:dc="http://purl.org/dc/elements/1.1/"
   xmlns:cc="http://creativecommons.org/ns#"
   xmlns:rdf="http://www.w3.org/1999/02/22-rdf-syntax-ns#"
   xmlns:svg="http://www.w3.org/2000/svg"
   xmlns="http://www.w3.org/2000/svg"
   xmlns:sodipodi="http://sodipodi.sourceforge.net/DTD/sodipodi-0.dtd"
   xmlns:inkscape="http://www.inkscape.org/namespaces/inkscape"
   viewBox="0 0 256 256"
   height="256"
   width="256"
   xml:space="preserve"
   id="svg2"
   version="1.1"
   inkscape:version="0.91 r13725"
   sodipodi:docname="Logo.svg"><sodipodi:namedview
     pagecolor="#24325b"
     bordercolor="#666666"
     borderopacity="1"
     objecttolerance="10"
     gridtolerance="10"
     guidetolerance="10"
     inkscape:pageopacity="0"
     inkscape:pageshadow="2"
     inkscape:window-width="1366"
     inkscape:window-height="705"
     id="namedview13"
     showgrid="true"
     inkscape:zoom="1.0993789"
     inkscape:cx="85.19372"
     inkscape:cy="109.10193"
     inkscape:window-x="-8"
     inkscape:window-y="-8"
     inkscape:window-maximized="1"
     inkscape:current-layer="g12"><inkscape:grid
       type="xygrid"
       id="grid4141"
       empspacing="64"
       empcolor="#1c28ff"
       empopacity="0.34901961"
       color="#3f3fff"
       opacity="0.2627451" /><inkscape:grid
       type="xygrid"
       id="grid4143"
       empspacing="16"
       empcolor="#3f3fff"
       empopacity="0.07058824" /></sodipodi:namedview><metadata
     id="metadata8"><rdf:RDF><cc:Work
         rdf:about=""><dc:format>image/svg+xml</dc:format><dc:type
           rdf:resource="http://purl.org/dc/dcmitype/StillImage" /><dc:title></dc:title></cc:Work></rdf:RDF></metadata><defs
     id="defs6" /><g
     transform="matrix(1.3333333,0,0,-1.3333333,0,256)"
     id="g10"><g
       transform="scale(0.1,0.1)"
       id="g12"><path
         id="path14"
         style="fill:#dddddd;fill-opacity:1;fill-rule:nonzero;stroke:none"
         d="m 851.5374,1398.7659 c -39.82829,0 -74.34495,-14.3337 -102.49378,-43.0117 -28.14459,-28.6779 -41.95338,-63.7206 -41.95338,-104.6178 0,-40.8951 13.80879,-75.4106 41.95338,-104.0865 28.14883,-29.2114 62.66549,-43.5483 102.49378,-43.5483 39.83255,0 73.81793,14.3369 101.96677,43.5483 28.1446,28.6759 42.48459,63.1914 42.48459,104.0865 0,40.8972 -14.33999,75.9399 -42.48459,104.6178 -28.14884,28.678 -62.13422,43.0117 -101.96677,43.0117"
         inkscape:connector-curvature="0" /><path
         id="path16"
         style="fill:#dddddd;fill-opacity:1;fill-rule:nonzero;stroke:none"
         d="m 1220.6227,1301.5859 c 14.3443,22.834 56.8247,37.7096 127.4625,45.1367 -373.33871,251.1954 -657.45692,232.0803 -851.29099,-56.8141 209.23774,248.5284 450.33471,252.2474 723.82849,11.6774"
         inkscape:connector-curvature="0" /><path
         id="path18"
         style="fill:#dddddd;fill-opacity:1;fill-rule:nonzero;stroke:none"
         d="m 362.43587,1250.6052 c -28.68011,-67.446 22.30167,-133.8292 153.47558,-198.0849 110.98986,-54.69982 214.5462,-207.11286 310.13771,-456.17889 1.59382,437.06149 -152.94431,654.79499 -463.61329,654.26379"
         inkscape:connector-curvature="0" /><path
         id="path20"
         style="fill:#dddddd;fill-opacity:1;fill-rule:nonzero;stroke:none"
         d="m 863.2211,317.53591 c 97.18534,358.99442 239.5074,578.32205 428.0287,657.97863 222.5174,93.99816 309.0826,189.59006 260.227,287.83046 -527.3435,1.0626 -756.76092,-314.38123 -688.2557,-945.80909"
         inkscape:connector-curvature="0" /><path
         id="path22"
         style="fill:none;stroke:#dddddd;stroke-width:54.90776825;stroke-linecap:round;stroke-linejoin:round;stroke-miterlimit:10;stroke-dasharray:none;stroke-opacity:1"
         d="m 1807.6072,1313.5885 c -4.1305,9.766 -8.8395,19.5205 -13.5599,29.2864 -44.2437,95.8903 -106.1776,183.7609 -186.9819,264.1406 -178.7209,179.1652 -394.6045,268.7478 -647.63885,268.7478 -253.03922,0 -468.91808,-89.5826 -648.22667,-268.7478 C 132.47794,1427.2873 42.823879,1211.3675 42.823879,958.70517 42.823879,705.46681 132.47794,488.97836 311.19988,310.38989 490.50847,130.65328 706.38733,41.072095 959.42655,41.072095 c 204.67555,0 384.57305,58.573326 540.88315,175.715035 1.1801,1.14894 2.3601,2.29788 4.1304,2.87235 34.7907,27.56644 69.003,57.9995 102.6253,90.73041 179.3109,178.58847 268.9663,395.07692 268.9663,648.31528 0,128.05783 -23.001,246.34323 -68.4245,354.88333 z"
         inkscape:connector-curvature="0" /><path
         id="path24"
         style="fill:none;stroke:#dddddd;stroke-width:90.00000225;stroke-linecap:round;stroke-linejoin:round;stroke-miterlimit:10;stroke-dasharray:none;stroke-opacity:1"
         d="m 1639.4197,1257.5591 c -3.6033,8.2258 -7.2066,16.462 -10.81,24.1834 -35.5081,79.7466 -85.934,152.8219 -150.7629,219.7098 -144.0709,148.7038 -317.9959,223.3131 -521.75624,223.3131 -203.76459,0 -377.68546,-74.6093 -522.27222,-223.3131 -144.07613,-149.2186 -216.11481,-328.7976 -216.11481,-539.25181 0,-210.45236 72.03868,-390.54623 216.11481,-539.25107 144.58676,-149.22064 318.50763,-223.8325 522.27222,-223.8325 164.65404,0 309.75764,48.88211 435.82224,146.13156 1.0296,1.02953 2.0591,2.05904 3.0886,2.57381 28.3015,22.64119 56.0882,47.85207 82.8454,75.12713 144.5858,148.70484 216.6213,328.79871 216.6213,539.25107 0,106.51171 -18.5211,204.79181 -55.0484,295.35861 z"
         inkscape:connector-curvature="0" /></g></g></svg>